#!OML:ASF F:\VICON\USERDATA\INSTALL\rory3\rory3.ASF
:FULLY-SPECIFIED
:DEGREES
318
root 0.400329 17.0039 8.87548 14.1652 -0.187139 1.9294
lowerback -7.39094 -0.18288 -2.95392
upperback -5.09369 -0.0753031 0.0142772
thorax -1.11687 0.0349941 1.66701
lowerneck -16.719 0.0897377 0.193043
upperneck 41.5672 0.171024 -0.226856
head 18.472 0.0711012 -0.106932
rclavicle -6.40848e-015 9.93923e-016
rhumerus -43.7561 -19.4086 -67.1834
rradius 23.7543
rwrist -4.39551
rhand -2.85978 12.7922
rfingers 7.12502
rthumb 22.8485 -15.8743
lclavicle -6.40848e-015 9.93923e-016
lhumerus -31.4899 17.4925 67.598
lradius 54.4047
lwrist -0.951431
lhand -1.54205 16.6682
lfingers 7.12502
lthumb 24.1126 45.173
rfemur -44.1815 20.233 4.30799
rtibia 21.0982
rfoot -29.1418 -33.6116
rtoes 1.12759
lfemur -5.05435 -12.1566 -26.1401
ltibia 12.5482
lfoot -19.5507 21.0339
ltoes -3.16346
319
root 0.37791 16.9814 9.02208 14.1574 0.0546682 1.85417
lowerback -7.48757 -0.315801 -2.90613
upperback -5.07245 -0.251026 0.176595
thorax -1.03214 -0.053284 1.79625
lowerneck -16.8612 0.184753 0.376131
upperneck 41.6025 0.377938 -0.520582
head 18.5351 0.140611 -0.238352
rclavicle -6.97921e-015 -4.77083e-015
rhumerus -43.8898 -19.2579 -67.0245
rradius 23.7916
rwrist -4.27477
rhand -2.90763 12.9986
rfingers 7.12502
rthumb 22.8026 -15.6736
lclavicle -6.97921e-015 -4.77083e-015
lhumerus -32.0486 16.8211 67.8997
lradius 55.1459
lwrist -0.960908
lhand -2.36043 18.3212
lfingers 7.12502
lthumb 23.3277 46.9278
rfemur -44.4029 20.8209 3.86957
rtibia 21.2234
rfoot -29.3811 -33.6256
rtoes 1.21037
lfemur -4.07637 -12.2707 -26.0751
ltibia 12.0998
lfoot -20.017 20.6173
ltoes -3.80224
320
root 0.331969 16.9567 9.12063 14.2471 -0.204481 1.40537
lowerback -7.018 -0.221629 -2.83249
upperback -5.33274 -0.147364 0.464826
thorax -1.56689 0.0121643 2.05962
lowerneck -16.5923 0.248029 0.554783
upperneck 41.5971 0.559557 -0.859811
head 18.4619 0.194073 -0.39529
rclavicle 2.77211e-015 -9.93923e-016
rhumerus -44.1983 -18.9497 -66.8685
rradius 23.9363
rwrist -4.47795
rhand -2.91285 12.8611
rfingers 7.12502
rthumb 22.7976 -15.8117
lclavicle 2.77211e-015 -9.93923e-016
lhumerus -32.4936 16.4508 67.9921
lradius 55.2583
lwrist -1.20426
lhand -2.57935 19.9612
lfingers 7.12502
lthumb 23.1176 48.5943
rfemur -45.0063 22.0316 3.63943
rtibia 21.2028
rfoot -29.3166 -33.5878
rtoes 2.32213
lfemur -3.84137 -12.0849 -25.4755
ltibia 12.0804
lfoot -20.3046 20.6327
ltoes -3.99347
321
root 0.310655 16.9424 9.26932 14.2342 -0.0426379 1.43999
lowerback -7.07026 -0.244073 -2.80644
upperback -5.42051 -0.177491 0.517237
thorax -1.62745 -0.000757394 2.09747
lowerneck -16.2676 0.215422 0.47476
upperneck 41.5438 0.548746 -0.878941
head 18.3403 0.175656 -0.391151
rclavicle 3.25316e-015 -4.57205e-015
rhumerus -44.5498 -19.3956 -66.2603
rradius 23.735
rwrist -3.99813
rhand -2.8484 13.055
rfingers 7.12502
rthumb 22.8595 -15.6102
lclavicle 3.25316e-015 -4.57205e-015
lhumerus -33.1664 16.0368 67.9884
lradius 55.3408
lwrist -1.60993
lhand -2.51935 20.3729
lfingers 7.12502
lthumb 23.1752 48.9988
rfemur -44.688 21.2804 4.17152
rtibia 21.3563
rfoot -28.144 -32.4368
rtoes 1.64942
lfemur -3.3307 -12.0974 -25.4978
ltibia 12.1207
lfoot -19.995 20.7916
ltoes -6.74948
322
root 0.27805 16.921 9.40771 14.1209 0.193772 1.44417
lowerback -7.09053 -0.30374 -2.89098
upperback -5.18725 -0.248428 0.629118
thorax -1.36966 -0.0388281 2.25604
lowerneck -16.7823 0.198007 0.346608
upperneck 41.5715 0.54081 -0.812199
head 18.4973 0.161056 -0.338208
rclavicle 3.91047e-015 1.39149e-015
rhumerus -44.3034 -20.071 -65.8632
rradius 23.4945
rwrist -3.52691
rhand -2.90564 13.011
rfingers 7.12502
rthumb 22.8045 -15.661
lclavicle 3.91047e-015 1.39149e-015
lhumerus -33.1773 16.258 67.9894
lradius 54.9923
lwrist -1.87877
lhand -2.32484 19.1622
lfingers 7.12502
lthumb 23.3618 47.7645
rfemur -44.2496 20.5872 4.84929
rtibia 21.5879
rfoot -26.9167 -31.5469
rtoes 1.59683
lfemur -2.87198 -12.608 -25.3557
ltibia 12.4426
lfoot -20.9995 20.2527
ltoes -4.87792
323
root 0.246279 16.8838 9.55186 14.0006 0.268383 1.48154
lowerback -7.17093 -0.353691 -3.07379
upperback -5.02941 -0.300328 0.781262
thorax -1.15794 -0.063304 2.5124
lowerneck -16.9756 0.200133 0.325393
upperneck 41.5398 0.614833 -0.956223
head 18.533 0.166442 -0.387817
rclavicle -4.20554e-015 -9.93923e-016
rhumerus -44.2696 -20.3023 -65.5686
rradius 23.5641
rwrist -3.37595
rhand -2.71366 12.7286
rfingers 7.12502
rthumb 22.9887 -15.9206
lclavicle -4.20554e-015 -9.93923e-016
lhumerus -33.2991 16.4393 68.0687
lradius 54.5726
lwrist -1.82913
lhand -2.56919 18.3838
lfingers 7.12502
lthumb 23.1274 47.0156
rfemur -43.9289 20.0207 5.48341
rtibia 22.1744
rfoot -25.9317 -30.3233
rtoes 2.53671
lfemur -2.08208 -13.0204 -25.3644
ltibia 12.5471
lfoot -22.4291 19.2723
ltoes -1.95165
324
root 0.233676 16.8562 9.70688 13.8404 0.606265 1.33069
lowerback -7.21081 -0.388432 -2.66679
upperback -5.01255 -0.36713 0.845801
thorax -1.11395 -0.106551 2.34581
lowerneck -16.6871 0.196596 0.419222
upperneck 41.3942 0.658445 -1.14998
head 18.3677 0.172875 -0.486162
rclavicle -1.53748e-015 1.98785e-016
rhumerus -44.592 -20.3312 -65.358
rradius 23.6557
rwrist -3.40014
rhand -2.64588 12.7044
rfingers 7.12502
rthumb 23.0538 -15.9366
lclavicle -1.53748e-015 1.98785e-016
lhumerus -33.5399 16.4756 68.0578
lradius 53.8918
lwrist -1.69188
lhand -2.87675 17.7178
lfingers 7.12502
lthumb 22.8322 46.3863
rfemur -43.2588 18.8667 6.62573
rtibia 22.8038
rfoot -25.2935 -28.6546
rtoes 3.36102
lfemur -1.47761 -13.1016 -25.3573
ltibia 12.9758
lfoot -21.8177 20.0337
ltoes -6.81007
325
root 0.235519 16.8376 9.84909 13.5868 1.32326 1.03407
lowerback -6.79398 -0.512038 -1.79949
upperback -5.09843 -0.585999 0.889402
thorax -1.42444 -0.232399 1.89313
lowerneck -16.5087 0.221723 0.486957
upperneck 41.3324 0.709859 -1.23479
head 18.2836 0.193254 -0.527217
rclavicle -2.14159e-015 5.1684e-015
rhumerus -44.9525 -20.5528 -65.0562
rradius 23.5896
rwrist -3.39087
rhand -2.91688 12.5305
rfingers 7.12502
rthumb 22.7937 -16.1428
lclavicle -2.14159e-015 5.1684e-015
lhumerus -34.1245 16.4775 67.8749
lradius 53.5026
lwrist -1.43046
lhand -2.85635 17.4396
lfingers 7.12502
lthumb 22.8518 46.1057
rfemur -42.2311 16.7314 8.44792
rtibia 23.5104
rfoot -24.4472 -26.7725
rtoes 2.49381
lfemur -0.87868 -13.4105 -25.1622
ltibia 13.3338
lfoot -20.3339 21.2411
ltoes -13.4937
326
root 0.167716 16.7993 9.9914 13.6908 0.85742 0.910635
lowerback -6.88596 -0.392191 -2.31395
upperback -5.11284 -0.397971 1.11194
thorax -1.39509 -0.121472 2.42208
lowerneck -16.8162 0.231457 0.502265
upperneck 41.4053 0.79595 -1.40558
head 18.4145 0.205301 -0.59476
rclavicle 1.00402e-014 1.59028e-015
rhumerus -44.9102 -20.4353 -65.1501
rradius 23.6468
rwrist -4.06618
rhand -3.46425 12.0503
rfingers 7.12502
rthumb 22.2684 -16.6867
lclavicle 1.00402e-014 1.59028e-015
lhumerus -34.8561 16.3599 67.8931
lradius 53.7316
lwrist -1.29606
lhand -2.6167 17.6612
lfingers 7.12502
lthumb 23.0818 46.2987
rfemur -42.3384 17.7495 8.63258
rtibia 24.0237
rfoot -24.2869 -26.8377
rtoes 4.49329
lfemur -0.978967 -13.2774 -24.9101
ltibia 14.0857
lfoot -20.7291 21.4367
ltoes -14.0622
327
root 0.152404 16.7811 10.1447 13.5041 1.14314 0.781384
lowerback -6.96991 -0.461082 -2.00283
upperback -4.86067 -0.503188 1.23952
thorax -1.08134 -0.186889 2.37103
lowerneck -17.3495 0.250324 0.387185
upperneck 41.4757 0.877049 -1.41784
head 18.6052 0.215729 -0.56503
rclavicle 2.60284e-015 -1.03368e-014
rhumerus -44.5453 -20.2629 -65.3875
rradius 23.7134
rwrist -4.74381
rhand -3.85036 11.841
rfingers 7.12502
rthumb 21.8976 -16.9398
lclavicle 2.60284e-015 -1.03368e-014
lhumerus -35.1881 16.6852 67.9419
lradius 53.6451
lwrist -1.68593
lhand -2.54946 17.2039
lfingers 7.12502
lthumb 23.1463 45.8334
rfemur -41.7132 17.1605 9.41386
rtibia 24.5978
rfoot -23.8391 -26.2886
rtoes 5.3656
lfemur -0.444225 -13.689 -24.8789
ltibia 14.6942
lfoot -21.0053 21.5792
ltoes -15.0797
328
root 0.0895061 16.7646 10.3022 13.5264 0.541203 0.190871
lowerback -7.57386 -0.28108 -1.91713
upperback -4.51798 -0.26018 1.49195
thorax -0.406276 -0.0758229 2.5961
lowerneck -17.939 0.280981 0.471407
upperneck 41.4778 0.911919 -1.4668
head 18.7713 0.233425 -0.597664
rclavicle -5.85172e-015 -3.97569e-016
rhumerus -44.0479 -20.8361 -65.351
rradius 23.3568
rwrist -4.36968
rhand -3.95972 12.1914
rfingers 7.12502
rthumb 21.7926 -16.6016
lclavicle -5.85172e-015 -3.97569e-016
lhumerus -35.0605 17.0839 67.9065
lradius 52.9862
lwrist -1.85001
lhand -2.89309 16.6744
lfingers 7.12502
lthumb 22.8166 45.3449
rfemur -42.1441 18.8684 9.66676
rtibia 25.1386
rfoot -22.7284 -27.4834
rtoes 5.01155
lfemur -0.149015 -13.4189 -24.2669
ltibia 15.2372
lfoot -21.7109 21.4704
ltoes -14.2013
329
root 0.0758955 16.7687 10.4459 13.5006 0.903176 0.302439
lowerback -6.96717 -0.347766 -1.66514
upperback -5.07613 -0.369354 1.43376
thorax -1.31383 -0.120152 2.39049
lowerneck -17.3014 0.283877 0.468128
upperneck 41.7186 0.918355 -1.45615
head 18.7427 0.240154 -0.59219
rclavicle 6.21202e-018 3.97569e-015
rhumerus -45.0894 -20.7444 -64.8389
rradius 23.1769
rwrist -4.21256
rhand -4.14489 12.4183
rfingers 7.12502
rthumb 21.6148 -16.3954
lclavicle 6.21202e-018 3.97569e-015
lhumerus -36.2382 16.8038 67.6099
lradius 52.2673
lwrist -1.81721
lhand -3.09606 16.6145
lfingers 7.12502
lthumb 22.6218 45.3089
rfemur -42.1045 18.1956 9.93626
rtibia 25.741
rfoot -19.5961 -27.8487
rtoes -0.0267785
lfemur 0.334793 -13.7426 -24.4125
ltibia 15.5341
lfoot -21.5975 21.2991
ltoes -14.6766
330
root 0.0404809 16.763 10.6012 13.2777 0.97275 -0.116348
lowerback -6.78314 -0.270373 -1.25119
upperback -5.15939 -0.287404 1.59606
thorax -1.5066 -0.0843362 2.33071
lowerneck -16.8093 0.348692 0.531466
upperneck 41.6089 1.05639 -1.58526
head 18.5435 0.290421 -0.63483
rclavicle -2.45064e-015 1.59028e-015
rhumerus -45.5744 -21.0042 -64.3604
rradius 23.0549
rwrist -3.91513
rhand -4.24431 12.5974
rfingers 7.12502
rthumb 21.5193 -16.2271
lclavicle -2.45064e-015 1.59028e-015
lhumerus -36.8573 16.8773 67.5338
lradius 51.6181
lwrist -1.86501
lhand -3.0391 16.4785
lfingers 7.12502
lthumb 22.6764 45.1662
rfemur -41.4752 18.1867 10.854
rtibia 26.1203
rfoot -17.5498 -26.9818
rtoes -2.04645
lfemur 0.711591 -13.7858 -23.998
ltibia 16.3535
lfoot -22.1415 20.9446
ltoes -14.2882
331
root 0.028775 16.7678 10.763 13.0382 1.29163 -0.521748
lowerback -6.88356 -0.270178 -0.510191
upperback -4.98479 -0.325105 1.72121
thorax -1.26993 -0.123484 2.0398
lowerneck -16.7351 0.329233 0.347271
upperneck 41.4875 1.0876 -1.56503
head 18.4485 0.277277 -0.583824
rclavicle 6.14912e-015 -4.77083e-015
rhumerus -45.5446 -21.3667 -64.0737
rradius 22.7771
rwrist -3.61111
rhand -4.29431 12.97
rfingers 7.12502
rthumb 21.4713 -15.86
lclavicle 6.14912e-015 -4.77083e-015
lhumerus -37.0336 17.4033 67.5612
lradius 50.731
lwrist -2.03751
lhand -3.13304 16.0055
lfingers 7.12502
lthumb 22.5863 44.7042
rfemur -40.6272 17.27 12.0916
rtibia 26.518
rfoot -16.5726 -25.4689
rtoes -3.02646
lfemur 1.00137 -14.1101 -23.7019
ltibia 17.3924
lfoot -22.3026 20.9865
ltoes -15.7422
